<svg width="96" height="96" xmlns="http://www.w3.org/2000/svg" xmlns:xlink="http://www.w3.org/1999/xlink" xml:space="preserve" overflow="hidden"><g transform="translate(-686 -234)"><path d="M765 298.958C764.891 296.049 763.542 293.326 761.294 291.476 758.161 288.815 753.865 286.525 747.864 284.298 749.969 284.068 752.033 283.554 754 282.769 754 282.769 751.738 281.416 750.337 275.879 749.448 272.4 752.85 263.702 752.879 257.579 752.879 252.679 751.487 250.485 748.858 248.997 747.341 248.137 743.843 248.929 743.843 248.929 743.843 248.929 742.04 245.5 735.99 243.62 731.019 242.265 725.714 242.941 721.242 245.5 717.5 247.92 715.7 250.578 715.608 259.72 715.531 268.099 716.681 275.54 716.149 279.048 715.903 280.99 715.163 282.837 714 284.412 715.833 284.566 717.674 284.607 719.512 284.533 713.838 286.686 709.729 288.908 706.705 291.475 704.448 293.336 703.099 296.076 703 299L703 316.569 703.89 317.163C708.79 320.428 721.583 322.055 734.283 322.055 747.09 322.055 759.8 320.4 764.2 317.1L765 316.5ZM748.505 296C749.61 296 750.505 296.895 750.505 298 750.505 299.105 749.61 300 748.505 300 747.4 300 746.505 299.105 746.505 298 746.505 296.895 747.4 296 748.505 296ZM722 261.939C722.487 261.909 722.972 261.851 723.453 261.764 726.808 261.322 730.083 260.401 733.176 259.029 736.653 257.28 738.646 256.422 741.531 253.81 741.912 253.435 742.524 253.44 742.898 253.821 743.041 253.965 743.134 254.151 743.165 254.351 743.395 255.941 743.993 259.44 744.788 260.835 745.147 261.521 745.552 262.182 746 262.814L746 267C746 273.627 740.627 279 734 279 727.373 279 722 273.627 722 267ZM741.821 285.909C739.282 286.657 736.647 287.025 734 287 731.351 287.025 728.713 286.657 726.172 285.908 727.331 284.96 728.002 283.542 728 282.045L728 281.819C731.847 283.391 736.158 283.391 740.005 281.819L740.005 282.041C739.999 283.538 740.667 284.958 741.823 285.909ZM761 314.409C752.24 319.228 716.6 319.187 707.008 314.348L707.008 299.042C707.083 297.275 707.919 295.628 709.3 294.524 712.082 292.307 715.184 290.526 718.5 289.24L718.5 293.522C714.563 293.785 711.503 297.054 711.5 301 711.501 301.424 711.683 301.828 712 302.11L712 308.5C712.003 309.892 712.964 311.099 714.32 311.415 714.825 312.072 715.767 312.195 716.424 311.69 717.08 311.185 717.203 310.243 716.698 309.586 716.193 308.93 715.251 308.807 714.595 309.311 714.572 309.329 714.55 309.347 714.529 309.365 714.207 309.196 714.004 308.864 714 308.5L714 302.11C714.317 301.828 714.499 301.424 714.5 301 714.5 298.515 716.515 296.5 719 296.5L720 296.5C722.485 296.5 724.5 298.515 724.5 301 724.501 301.424 724.683 301.828 725 302.11L725 308.5C724.996 308.863 724.794 309.196 724.472 309.365 723.845 308.824 722.898 308.893 722.356 309.521 721.815 310.148 721.885 311.095 722.512 311.636 723.139 312.177 724.086 312.108 724.628 311.481 724.646 311.459 724.664 311.437 724.681 311.415 726.037 311.099 726.997 309.892 727 308.5L727 302.11C727.317 301.828 727.499 301.424 727.5 301 727.496 297.055 724.436 293.788 720.5 293.525L720.5 288.435C720.777 288.327 721.048 288.219 721.338 288.11 724.275 289.934 728.891 291 734 291 739.109 291 743.724 289.933 746.657 288.11 746.95 288.22 747.22 288.329 747.503 288.439L747.503 294.075C747.503 294.098 747.515 294.116 747.516 294.138 745.375 294.683 744.082 296.861 744.627 299.002 745.173 301.142 747.35 302.436 749.491 301.89 751.632 301.345 752.925 299.167 752.38 297.027 752.018 295.608 750.91 294.5 749.491 294.138 749.491 294.116 749.503 294.097 749.503 294.075L749.503 289.244C752.82 290.528 755.922 292.309 758.703 294.525 760.077 295.617 760.914 297.247 761 299Z"/><path d="M749.505 298C749.505 298.552 749.057 299 748.505 299 747.953 299 747.505 298.552 747.505 298 747.505 297.448 747.953 297 748.505 297 749.057 297 749.505 297.448 749.505 298Z"/></g></svg>