<svg width="96" height="96" xmlns="http://www.w3.org/2000/svg" xmlns:xlink="http://www.w3.org/1999/xlink" xml:space="preserve" overflow="hidden"><g transform="translate(-640 -67)"><path d="M704 135 704 127 670 127C668.9 127 668 126.1 668 125L668 105C668 103.9 668.9 103 670 103L704 103 704 95C704 92.8 702.2 91 700 91L696.5 91C696.2 91 696 90.8 696 90.5L696 87.5C696 87.2 696.2 87 696.5 87L699 87C699.6 87 700 86.6 700 86L700 79C700 76.8 698.2 75 696 75L668 75C665.8 75 664 76.8 664 79L664 86C664 86.6 664.4 87 665 87L667.5 87C667.8 87 668 87.2 668 87.5L668 90.5C668 90.8 667.8 91 667.5 91L664 91C661.8 91 660 92.8 660 95L660 143C660 145.2 661.8 147 664 147L678 147C678 140.4 683.4 135 690 135L704 135Z"/><path d="M672 108 672 122C672 122.6 672.4 123 673 123L704 123 704 107 673 107C672.4 107 672 107.4 672 108Z"/><path d="M699 151 690 151C687.8 151 686 149.2 686 147 686 144.8 687.8 143 690 143L699 143 699 151ZM708 139 690 139C685.6 139 682 142.6 682 147 682 151.4 685.6 155 690 155L708 155C712.4 155 716 151.4 716 147 716 142.6 712.4 139 708 139Z"/></g></svg>