<svg width="96" height="96" xmlns="http://www.w3.org/2000/svg" xmlns:xlink="http://www.w3.org/1999/xlink" xml:space="preserve" overflow="hidden"><g transform="translate(-407 -102)"><path d="M472 131 466 131 466 125 472 125 472 131ZM472 147 466 147 466 141 472 141 472 147ZM472 163 466 163 466 157 472 157 472 163ZM472 179 466 179 466 173 472 173 472 179ZM458 131 452 131 452 125 458 125 458 131ZM458 147 452 147 452 141 458 141 458 147ZM458 163 452 163 452 157 458 157 458 163ZM458 185 452 185 452 173 458 173 458 185ZM444 131 438 131 438 125 444 125 444 131ZM444 147 438 147 438 141 444 141 444 147ZM444 163 438 163 438 157 444 157 444 163ZM444 179 438 179 438 173 444 173 444 179ZM479 185 479 118 476 118 476 112 473 112 473 108 437 108 437 112 434 112 434 118 431 118 431 185 427 185 427 192 483 192 483 185 479 185Z"/></g></svg>