<svg width="387" height="388" xmlns="http://www.w3.org/2000/svg" xmlns:xlink="http://www.w3.org/1999/xlink" xml:space="preserve" overflow="hidden"><g transform="translate(-2578 -747)"><path d="M330.562 56.4375 56.4375 56.4375 177.375 177.375 177.375 298.312 177.375 330.562 209.625 298.312 209.625 177.375Z" transform="matrix(1 0 0 1.00258 2578 747)"/><path d="M2676 925.5C2676 872.757 2718.76 830 2771.5 830 2824.24 830 2867 872.757 2867 925.5 2867 978.243 2824.24 1021 2771.5 1021 2718.76 1021 2676 978.243 2676 925.5Z" fill="#FFFFFF" fill-rule="evenodd"/><path d="M2771 857.225C2733.02 857.225 2702.23 888.017 2702.23 926 2702.23 963.983 2733.02 994.774 2771 994.774 2808.98 994.774 2839.77 963.983 2839.77 926 2839.77 888.017 2808.98 857.225 2771 857.225ZM2771 844C2816.29 844 2853 880.712 2853 926 2853 971.287 2816.29 1008 2771 1008 2725.71 1008 2689 971.287 2689 926 2689 880.712 2725.71 844 2771 844Z" fill-rule="evenodd"/><g><g><g><path d="M2773.89 880.089C2749.93 880.089 2730.16 899.016 2728.96 922.974L2718.3 912.313C2716.86 910.995 2714.71 910.995 2713.27 912.432 2711.95 913.75 2711.83 916.026 2713.15 917.464L2730.04 934.354C2730.4 934.714 2730.76 934.953 2731.24 935.073 2731.36 935.073 2731.48 935.193 2731.72 935.193L2731.96 935.312 2732.32 935.312 2732.68 935.312 2732.92 935.312C2733.76 935.312 2734.59 934.833 2735.19 934.234L2752.08 917.344C2753.52 915.906 2753.52 913.63 2752.08 912.313 2750.65 910.875 2748.37 910.875 2747.05 912.313L2736.15 923.214C2736.99 906.203 2749.09 891.948 2765.74 888.234 2782.39 884.521 2799.4 892.427 2807.31 907.521 2815.21 922.615 2812.1 941.062 2799.64 952.682 2798.2 954 2798.08 956.276 2799.52 957.714 2800.84 959.151 2803.11 959.271 2804.55 957.953 2818.09 945.375 2822.52 925.849 2815.69 908.599 2808.98 891.349 2792.33 880.089 2773.89 880.089Z"/></g></g></g></g></svg>