<svg width="96" height="96" xmlns="http://www.w3.org/2000/svg" xmlns:xlink="http://www.w3.org/1999/xlink" xml:space="preserve" overflow="hidden"><g transform="translate(-372 -298)"><path d="M439.8 333 436.4 329.6 433.6 332.4 437 335.8 433.8 339 430.4 335.6 427.6 338.4 431 341.8 427.8 345 424.4 341.6 421.6 344.4 425 347.8 421.9 350.9 415.1 344.1 436 323.2 442.8 330 439.8 333ZM459.1 318.9 447.1 306.9C445.9 305.7 444 305.7 442.9 306.9 441.7 308.1 441.7 310 442.9 311.1L445.4 313.6 440.1 318.9 436 314.8 434.1 312.9C432.9 311.7 431 311.7 429.9 312.9 428.7 314.1 428.7 316 429.9 317.1L431.8 319 405.4 345.4C403.4 347.4 402.2 350.1 402.2 353 402.2 354.1 402.4 355.2 402.7 356.3L397.5 361.5C396.1 362.9 395.7 365 396.4 366.8L380.6 382.6C379.8 383.4 379.8 384.6 380.6 385.4 381 385.8 381.5 386 382 386 382.5 386 383 385.8 383.4 385.4L399.2 369.6C401 370.3 403.1 369.9 404.5 368.5L409.7 363.3C410.8 363.6 411.9 363.8 413 363.8 415.8 363.8 418.5 362.8 420.6 360.6L447 334.2 448.9 336.1C449.5 336.7 450.3 337 451 337 451.7 337 452.5 336.7 453.1 336.1 454.3 334.9 454.3 333 453.1 331.9L451.2 330 447.1 325.9 452.4 320.6 454.9 323.1C455.5 323.7 456.3 324 457 324 457.7 324 458.5 323.7 459.1 323.1 460.3 321.9 460.3 320.1 459.1 318.9Z"/></g></svg>